<?xml version="1.0" encoding="UTF-8" standalone="no"?>
<!DOCTYPE svg PUBLIC "-//W3C//DTD SVG 1.1//EN"
 "http://www.w3.org/Graphics/SVG/1.1/DTD/svg11.dtd">
<!-- Generated by graphviz version 2.43.0 (0)
 -->
<!-- Title: %3 Pages: 1 -->
<svg width="258pt" height="233pt"
 viewBox="0.00 0.00 258.00 233.00" xmlns="http://www.w3.org/2000/svg" xmlns:xlink="http://www.w3.org/1999/xlink">
<g id="graph0" class="graph" transform="scale(1 1) rotate(0) translate(4 229)">
<title>%3</title>
<polygon fill="white" stroke="transparent" points="-4,4 -4,-229 254,-229 254,4 -4,4"/>
<g id="clust1" class="cluster">
<title>cluster_dev1</title>
<path fill="#1199dd" fill-opacity="0.200000" stroke="black" d="M20,-133C20,-133 230,-133 230,-133 236,-133 242,-139 242,-145 242,-145 242,-205 242,-205 242,-211 236,-217 230,-217 230,-217 20,-217 20,-217 14,-217 8,-211 8,-205 8,-205 8,-145 8,-145 8,-139 14,-133 20,-133"/>
<text text-anchor="middle" x="125" y="-201.8" font-family="Helvetica,Arial,sans-serif" font-size="14.00">Device 1</text>
</g>
<g id="clust2" class="cluster">
<title>cluster_dev2</title>
<path fill="#119999" fill-opacity="0.200000" stroke="black" d="M20,-8C20,-8 230,-8 230,-8 236,-8 242,-14 242,-20 242,-20 242,-80 242,-80 242,-86 236,-92 230,-92 230,-92 20,-92 20,-92 14,-92 8,-86 8,-80 8,-80 8,-20 8,-20 8,-14 14,-8 20,-8"/>
<text text-anchor="middle" x="125" y="-15.8" font-family="Helvetica,Arial,sans-serif" font-size="14.00">Device 2</text>
</g>
<!-- struct1 -->
<g id="node1" class="node">
<title>struct1</title>
<polygon fill="white" stroke="black" points="20,-145.5 20,-181.5 230,-181.5 230,-145.5 20,-145.5"/>
<text text-anchor="middle" x="46.5" y="-159.8" font-family="Helvetica,Arial,sans-serif" font-size="14.00">MISO</text>
<polyline fill="none" stroke="black" points="73,-145.5 73,-181.5 "/>
<text text-anchor="middle" x="99" y="-159.8" font-family="Helvetica,Arial,sans-serif" font-size="14.00">MOSI</text>
<polyline fill="none" stroke="black" points="125,-145.5 125,-181.5 "/>
<text text-anchor="middle" x="151" y="-159.8" font-family="Helvetica,Arial,sans-serif" font-size="14.00">SCLK</text>
<polyline fill="none" stroke="black" points="177,-145.5 177,-181.5 "/>
<text text-anchor="middle" x="203.5" y="-159.8" font-family="Helvetica,Arial,sans-serif" font-size="14.00">SSCS</text>
</g>
<!-- struct2 -->
<g id="node2" class="node">
<title>struct2</title>
<polygon fill="white" stroke="black" points="20,-43.5 20,-79.5 230,-79.5 230,-43.5 20,-43.5"/>
<text text-anchor="middle" x="46.5" y="-57.8" font-family="Helvetica,Arial,sans-serif" font-size="14.00">MISO</text>
<polyline fill="none" stroke="black" points="73,-43.5 73,-79.5 "/>
<text text-anchor="middle" x="99" y="-57.8" font-family="Helvetica,Arial,sans-serif" font-size="14.00">MOSI</text>
<polyline fill="none" stroke="black" points="125,-43.5 125,-79.5 "/>
<text text-anchor="middle" x="151" y="-57.8" font-family="Helvetica,Arial,sans-serif" font-size="14.00">SCLK</text>
<polyline fill="none" stroke="black" points="177,-43.5 177,-79.5 "/>
<text text-anchor="middle" x="203.5" y="-57.8" font-family="Helvetica,Arial,sans-serif" font-size="14.00">SSCS</text>
</g>
<!-- struct1&#45;&gt;struct2 -->
<g id="edge1" class="edge">
<title>struct1:port1&#45;&gt;struct2:port1</title>
<path fill="none" stroke="black" d="M46,-144.5C46,-119.72 46,-111.13 46,-90.53"/>
<polygon fill="black" stroke="black" points="49.5,-90.5 46,-80.5 42.5,-90.5 49.5,-90.5"/>
</g>
<!-- struct1&#45;&gt;struct2 -->
<g id="edge2" class="edge">
<title>struct1:port2&#45;&gt;struct2:port2</title>
<path fill="none" stroke="black" d="M99,-144.5C99,-119.72 99,-111.13 99,-90.53"/>
<polygon fill="black" stroke="black" points="102.5,-90.5 99,-80.5 95.5,-90.5 102.5,-90.5"/>
</g>
<!-- struct1&#45;&gt;struct2 -->
<g id="edge4" class="edge">
<title>struct1:port4&#45;&gt;struct2:port4</title>
<path fill="none" stroke="black" d="M204,-144.5C204,-119.72 204,-111.13 204,-90.53"/>
<polygon fill="black" stroke="black" points="207.5,-90.5 204,-80.5 200.5,-90.5 207.5,-90.5"/>
</g>
<!-- struct2&#45;&gt;struct1 -->
<g id="edge3" class="edge">
<title>struct2:port3&#45;&gt;struct1:port3</title>
<path fill="none" stroke="black" d="M151,-80.5C151,-105.28 151,-113.87 151,-134.47"/>
<polygon fill="black" stroke="black" points="147.5,-134.5 151,-144.5 154.5,-134.5 147.5,-134.5"/>
</g>
</g>
</svg>
