<?xml version="1.0" encoding="UTF-8" standalone="no"?>
<!DOCTYPE svg PUBLIC "-//W3C//DTD SVG 1.1//EN"
 "http://www.w3.org/Graphics/SVG/1.1/DTD/svg11.dtd">
<!-- Generated by graphviz version 2.43.0 (0)
 -->
<!-- Title: %3 Pages: 1 -->
<svg width="357pt" height="241pt"
 viewBox="0.00 0.00 357.00 241.00" xmlns="http://www.w3.org/2000/svg" xmlns:xlink="http://www.w3.org/1999/xlink">
<g id="graph0" class="graph" transform="scale(1 1) rotate(0) translate(4 237)">
<title>%3</title>
<polygon fill="white" stroke="transparent" points="-4,4 -4,-237 353,-237 353,4 -4,4"/>
<g id="clust1" class="cluster">
<title>cluster_dev1</title>
<path fill="#e5e5e5" stroke="black" d="M156,-140C156,-140 329,-140 329,-140 335,-140 341,-146 341,-152 341,-152 341,-213 341,-213 341,-219 335,-225 329,-225 329,-225 156,-225 156,-225 150,-225 144,-219 144,-213 144,-213 144,-152 144,-152 144,-146 150,-140 156,-140"/>
<text text-anchor="middle" x="242.5" y="-209.8" font-family="Helvetica,Arial,sans-serif" font-size="14.00">UART 1</text>
</g>
<g id="clust2" class="cluster">
<title>cluster_dev2</title>
<path fill="#e5e5e5" stroke="black" d="M156,-8C156,-8 329,-8 329,-8 335,-8 341,-14 341,-20 341,-20 341,-81 341,-81 341,-87 335,-93 329,-93 329,-93 156,-93 156,-93 150,-93 144,-87 144,-81 144,-81 144,-20 144,-20 144,-14 150,-8 156,-8"/>
<text text-anchor="middle" x="242.5" y="-15.8" font-family="Helvetica,Arial,sans-serif" font-size="14.00">UART 2</text>
</g>
<!-- Tx1 -->
<g id="node1" class="node">
<title>Tx1</title>
<polygon fill="#1199dd" fill-opacity="0.200000" stroke="black" points="156,-153 156,-189 210,-189 210,-153 156,-153"/>
<text text-anchor="middle" x="183" y="-167.3" font-family="Helvetica,Arial,sans-serif" font-size="14.00">Tx1</text>
</g>
<!-- Rx2 -->
<g id="node4" class="node">
<title>Rx2</title>
<polygon fill="#1199dd" fill-opacity="0.200000" stroke="black" points="275,-44 275,-80 329,-80 329,-44 275,-44"/>
<text text-anchor="middle" x="302" y="-58.3" font-family="Helvetica,Arial,sans-serif" font-size="14.00">Rx2</text>
</g>
<!-- Tx1&#45;&gt;Rx2 -->
<g id="edge3" class="edge">
<title>Tx1&#45;&gt;Rx2</title>
<path fill="none" stroke="black" d="M203.58,-152.76C222.82,-134.84 252.33,-107.34 273.83,-87.31"/>
<polygon fill="black" stroke="black" points="276.42,-89.68 281.35,-80.3 271.65,-84.56 276.42,-89.68"/>
</g>
<!-- Rx1 -->
<g id="node2" class="node">
<title>Rx1</title>
<polygon fill="#1199dd" fill-opacity="0.200000" stroke="black" points="275,-153 275,-189 329,-189 329,-153 275,-153"/>
<text text-anchor="middle" x="302" y="-167.3" font-family="Helvetica,Arial,sans-serif" font-size="14.00">Rx1</text>
</g>
<!-- Tx2 -->
<g id="node3" class="node">
<title>Tx2</title>
<polygon fill="#1199dd" fill-opacity="0.200000" stroke="black" points="156,-44 156,-80 210,-80 210,-44 156,-44"/>
<text text-anchor="middle" x="183" y="-58.3" font-family="Helvetica,Arial,sans-serif" font-size="14.00">Tx2</text>
</g>
<!-- Tx2&#45;&gt;Rx1 -->
<g id="edge4" class="edge">
<title>Tx2&#45;&gt;Rx1</title>
<path fill="none" stroke="black" d="M203.58,-80.24C222.82,-98.16 252.33,-125.66 273.83,-145.69"/>
<polygon fill="black" stroke="black" points="271.65,-148.44 281.35,-152.7 276.42,-143.32 271.65,-148.44"/>
</g>
<!-- Data_Bus_1 -->
<g id="node5" class="node">
<title>Data_Bus_1</title>
<polygon fill="#1199dd" fill-opacity="0.200000" stroke="black" points="0,-153 0,-189 91,-189 91,-153 0,-153"/>
<text text-anchor="middle" x="45.5" y="-167.3" font-family="Helvetica,Arial,sans-serif" font-size="14.00">Data_Bus_1</text>
</g>
<!-- Data_Bus_1&#45;&gt;Tx1 -->
<g id="edge1" class="edge">
<title>Data_Bus_1&#45;&gt;Tx1:w</title>
<path fill="none" stroke="black" d="M101.51,-171C111.91,-171 122.98,-171 133.96,-171"/>
<polygon fill="black" stroke="black" points="101.11,-167.5 91.11,-171 101.11,-174.5 101.11,-167.5"/>
<polygon fill="black" stroke="black" points="134,-174.5 144,-171 134,-167.5 134,-174.5"/>
</g>
<!-- Data_Bus_2 -->
<g id="node6" class="node">
<title>Data_Bus_2</title>
<polygon fill="#1199dd" fill-opacity="0.200000" stroke="black" points="0,-44 0,-80 91,-80 91,-44 0,-44"/>
<text text-anchor="middle" x="45.5" y="-58.3" font-family="Helvetica,Arial,sans-serif" font-size="14.00">Data_Bus_2</text>
</g>
<!-- Data_Bus_2&#45;&gt;Tx2 -->
<g id="edge2" class="edge">
<title>Data_Bus_2&#45;&gt;Tx2:w</title>
<path fill="none" stroke="black" d="M101.51,-62C111.91,-62 122.98,-62 133.96,-62"/>
<polygon fill="black" stroke="black" points="101.11,-58.5 91.11,-62 101.11,-65.5 101.11,-58.5"/>
<polygon fill="black" stroke="black" points="134,-65.5 144,-62 134,-58.5 134,-65.5"/>
</g>
</g>
</svg>
